# xmcd CD database file
# Copyright (C) 1996 Ti Kan
#
# Track frame offsets:
# 	150
# 	122705
# 	137135
# 	152994
# 	168606
# 	186234
# 	203674
# 	224849
# 	238819
# 	255149
# 	266774
# 	279944
# 	296060
#
# Disc length: 4293 seconds
#
# Revision: 1
# Processed by: cddbd v1.4b41PL1 Copyright (c) Steve Scherf et al.
# Submitted via: DiscPlay 3.3.1
#
DISCID=cf10c30d
DTITLE=Highway 101 - Reunited
DYEAR=1900
DGENRE=
TTITLE0=CD-ROM Multimedia Presentation
TTITLE1=Where'd You Get Your Cheatin' From
TTITLE2=The Bed You Made For Me
TTITLE3=Holdin' On
TTITLE4=Hearts On The Run
TTITLE5=Setting Me Up
TTITLE6=She Don't Have The Heart To Love You
TTITLE7=Texas Girl
TTITLE8=All The Reasons Why
TTITLE9=Walkin', Talkin', Cryin', Barely Beatin' Broken Heart
TTITLE10=I've Got Your Number
TTITLE11=It Must Be Love
TTITLE12=Have You Ever Really Loved A Woman
EXTD=
EXTT0=
EXTT1=
EXTT2=
EXTT3=
EXTT4=
EXTT5=
EXTT6=
EXTT7=
EXTT8=
EXTT9=
EXTT10=
EXTT11=
EXTT12=
PLAYORDER=
